<?xml version="1.0" encoding="UTF-8"?> <svg xmlns="http://www.w3.org/2000/svg" xmlns:xlink="http://www.w3.org/1999/xlink" id="Laag_1" data-name="Laag 1" viewBox="0 0 99.21 70.87"><defs><style> .cls-1 { fill: url(#Naamloos_verloop_20); } .cls-2 { fill: url(#Naamloos_verloop_20-2); } .cls-3 { fill: url(#Naamloos_verloop_20-4); } .cls-4 { fill: url(#Naamloos_verloop_20-3); fill-rule: evenodd; } </style><linearGradient id="Naamloos_verloop_20" data-name="Naamloos verloop 20" x1="13.94" y1="35.43" x2="82.7" y2="35.43" gradientUnits="userSpaceOnUse"><stop offset="0" stop-color="#b47d57"></stop><stop offset="1" stop-color="#e2c493"></stop></linearGradient><linearGradient id="Naamloos_verloop_20-2" data-name="Naamloos verloop 20" y1="28.52" x2="82.7" y2="28.52" xlink:href="#Naamloos_verloop_20"></linearGradient><linearGradient id="Naamloos_verloop_20-3" data-name="Naamloos verloop 20" x1="13.94" y1="12.86" x2="82.7" y2="12.86" xlink:href="#Naamloos_verloop_20"></linearGradient><linearGradient id="Naamloos_verloop_20-4" data-name="Naamloos verloop 20" y1="28.52" x2="82.7" y2="28.52" xlink:href="#Naamloos_verloop_20"></linearGradient></defs><g id="magnifying-glass"><g id="Page-1"><g id="_040---Search-for-Money" data-name="040---Search-for-Money"><path id="Shape" class="cls-1" d="M70.55,28.52c.03-15.41-12.44-27.93-27.85-27.96-15.41-.03-27.93,12.44-27.96,27.85-.03,15.41,12.44,27.93,27.85,27.96,6.21.01,12.25-2.05,17.16-5.86l2.5,2.5c-.91.91-.91,2.37,0,3.28l2.46,2.46,3.28,3.28,6.56,6.57c2.27,2.27,5.94,2.27,8.21,0,2.27-2.27,2.27-5.94,0-8.21h0l-6.56-6.56-1.65-1.64-4.11-4.11c-.91-.91-2.38-.91-3.28,0l-2.5-2.51c3.81-4.87,5.88-10.88,5.88-17.06ZM17.16,28.52c0-14.1,11.43-25.54,25.54-25.54s25.54,11.43,25.54,25.54-11.43,25.54-25.54,25.54h0c-14.1,0-25.54-11.43-25.54-25.54h0ZM72.92,53.83l.82.82-4.92,4.92-1.64-1.64,4.92-4.92.82.82ZM81.13,66.97c-1.38,1.31-3.55,1.31-4.92,0l-5.75-5.75,4.92-4.92,5.74,5.74c1.36,1.36,1.36,3.56,0,4.93h0s0,0,0,0ZM70.46,51.37l-4.92,4.92-1.64-1.64,4.92-4.92,1.64,1.64ZM65.54,49.73l-1.64,1.64-2.36-2.36c.57-.53,1.12-1.07,1.64-1.64l2.36,2.36Z"></path><path id="Shape-2" data-name="Shape" class="cls-2" d="M42.69,5.31c-12.82,0-23.22,10.39-23.22,23.21,0,12.82,10.39,23.22,23.21,23.22,12.82,0,23.22-10.39,23.22-23.21h0c0-12.82-10.39-23.22-23.21-23.22ZM42.69,49.41c-11.54,0-20.89-9.35-20.9-20.89,0-11.54,9.35-20.89,20.89-20.9,11.54,0,20.89,9.35,20.9,20.89h0c0,11.54-9.35,20.89-20.89,20.9Z"></path><path id="Path" class="cls-4" d="M43.85,11.11c0-.64-.52-1.16-1.16-1.16h0c-4.02-.01-7.93,1.29-11.14,3.72-.52.37-.65,1.1-.27,1.62.37.52,1.1.65,1.62.27.02-.01.03-.02.05-.04,2.81-2.12,6.23-3.26,9.75-3.25.64,0,1.16-.52,1.16-1.16Z"></path><path id="Shape-3" data-name="Shape" class="cls-3" d="M47.33,23.88c-.02.64.49,1.18,1.13,1.19.64.02,1.18-.49,1.19-1.13,0-.02,0-.04,0-.07,0-2.87-2.52-5.25-5.8-5.72v-2.41c.02-.64-.49-1.18-1.13-1.19-.64-.02-1.18.49-1.19,1.13,0,.02,0,.04,0,.07v2.41c-3.29.47-5.8,2.85-5.8,5.72s2.52,5.25,5.8,5.72v6.93c-2-.39-3.48-1.74-3.48-3.36.02-.64-.49-1.18-1.13-1.19-.64-.02-1.18.49-1.19,1.13,0,.02,0,.04,0,.07,0,2.87,2.52,5.25,5.8,5.72v2.41c-.02.64.49,1.18,1.13,1.19.64.02,1.18-.49,1.19-1.13,0-.02,0-.04,0-.07v-2.41c3.29-.47,5.8-2.85,5.8-5.72s-2.52-5.25-5.8-5.72v-6.93c2,.39,3.48,1.74,3.48,3.36ZM38.04,23.88c0-1.62,1.49-2.97,3.48-3.36v6.72c-2-.39-3.48-1.74-3.48-3.36h0ZM47.33,33.16c0,1.62-1.49,2.97-3.48,3.36v-6.72c2,.39,3.48,1.74,3.48,3.36h0Z"></path></g></g></g></svg> 