<svg xmlns="http://www.w3.org/2000/svg" id="Layer_2" data-name="Layer 2" viewBox="0 0 411.02 376.08"><defs><style>            .cls-2{fill:#fbf9f5}.cls-3{fill:#976d37}        </style></defs><g id="_&#xCE;&#xD3;&#xC8;_1" data-name="&#x2014;&#xCE;&#xD3;&#xC8;_1"><path style="fill:none" d="M0 0h411.02v376.08H0z"></path><path class="cls-3" d="M304.48 219.33c-1.02 0-2.04-.37-2.84-1.12a4.17 4.17 0 0 1-.2-5.89l40.33-43.13c12.7-13.58 19.69-31.33 19.69-49.98 0-17.48-6.25-34.39-17.6-47.62-12.8-14.92-30.64-23.93-50.24-25.36-19.6-1.43-38.55 4.89-53.37 17.78l-66.16 57.59a20.703 20.703 0 0 0-7.14 15.65c0 5.15 1.9 10.09 5.35 13.91 3.71 4.12 8.8 6.55 14.34 6.83 5.56.27 10.89-1.62 15.02-5.35l25.11-22.81 34.81-31.57c1.7-1.54 4.34-1.42 5.88.29a4.152 4.152 0 0 1-.29 5.88L232.36 136l-25.12 22.81c-5.79 5.24-13.26 7.9-21.04 7.5-7.77-.4-14.91-3.8-20.1-9.58a29.048 29.048 0 0 1-7.49-19.49c0-8.42 3.65-16.42 10-21.94l66.15-57.58c16.51-14.37 37.62-21.4 59.45-19.81 21.83 1.59 41.71 11.63 55.96 28.25a81.512 81.512 0 0 1 19.61 53.04c0 20.76-7.79 40.53-21.94 55.67L307.51 218a4.14 4.14 0 0 1-3.04 1.32ZM241.1 313.07c-6.26 0-12.13-2.43-16.53-6.83l-46.37-46.18a4.158 4.158 0 0 1-.01-5.89 4.168 4.168 0 0 1 5.89-.01l46.37 46.18c2.83 2.84 6.61 4.4 10.65 4.4s7.75-1.55 10.6-4.35c2.89-2.84 4.49-6.64 4.51-10.7.02-4.05-1.55-7.86-4.41-10.72a4.158 4.158 0 0 1 0-5.89 4.158 4.158 0 0 1 5.89 0c4.44 4.44 6.88 10.35 6.85 16.64-.03 6.29-2.51 12.19-7 16.6a23.312 23.312 0 0 1-16.45 6.74Z"></path><path class="cls-3" d="M268.52 286.3c-5.98 0-11.63-2.32-15.92-6.52l-.81-.8-45.07-44.42a4.159 4.159 0 0 1-.04-5.89 4.159 4.159 0 0 1 5.89-.04l45.89 45.24c2.69 2.64 6.26 4.11 10.05 4.11s7.4-1.49 10.12-4.18c5.59-5.52 5.66-14.57.17-20.18l-2.1-2.16a4.168 4.168 0 0 1 .09-5.89 4.168 4.168 0 0 1 5.89.09l2.09 2.15c8.68 8.87 8.56 23.19-.28 31.92-4.29 4.25-9.96 6.59-15.98 6.59Z"></path><path class="cls-3" d="M294.33 258.88c-6.67 0-12.92-2.64-17.59-7.42l-42.36-43.54c-1.6-1.65-1.57-4.29.08-5.89a4.159 4.159 0 0 1 5.89.08l42.35 43.54c3.09 3.16 7.22 4.91 11.63 4.91s8.74-1.83 11.86-5.14c5.75-6.12 5.82-15.79.14-22.01l-4.93-5.43-74.91-82.23a4.172 4.172 0 0 1 .27-5.89 4.172 4.172 0 0 1 5.89.27l74.92 82.24 4.93 5.43c8.59 9.41 8.48 24.05-.24 33.33-4.72 5.01-11.09 7.76-17.93 7.76ZM215.48 338.38c-6.23 0-12.2-2.67-16.38-7.34L61.2 176.21c-13.86-15.58-20.92-35.62-19.87-56.44 1.05-20.82 10.08-40.04 25.43-54.14 14.61-13.41 33.55-20.79 53.33-20.79 22.17 0 43.44 9.39 58.36 25.76l21.1 23.19a4.16 4.16 0 0 1-.28 5.88 4.16 4.16 0 0 1-5.88-.28l-21.1-23.19c-13.34-14.64-32.37-23.04-52.2-23.04-17.69 0-34.63 6.61-47.7 18.6-28.21 25.9-30.44 70.27-4.97 98.9l137.89 154.82c2.59 2.89 6.3 4.56 10.16 4.56 3.49 0 6.83-1.33 9.38-3.75 2.69-2.55 4.2-6 4.24-9.71.04-3.71-1.38-7.19-4-9.8l-.54-.54a4.158 4.158 0 0 1 0-5.89 4.158 4.158 0 0 1 5.89 0l.53.53c4.23 4.21 6.52 9.83 6.45 15.8-.07 5.98-2.5 11.54-6.84 15.66-4.12 3.89-9.48 6.04-15.11 6.04Z"></path><path class="cls-2" d="M82.41 240.88c-8.02-8.02-8.02-21.03 0-29.05l44.78-44.76c8.02-8.02 21.03-8.02 29.05 0s8.02 21.03 0 29.05l-44.78 44.76c-8.02 8.02-21.03 8.02-29.05 0Z"></path><path class="cls-2" d="M111.46 269.93c-8.02-8.02-8.02-21.03 0-29.05l44.78-44.76c8.02-8.02 21.03-8.02 29.05 0s8.02 21.03 0 29.05l-44.78 44.76c-8.02 8.02-21.03 8.02-29.05 0Z"></path><path class="cls-2" d="M140.5 298.99c-8.02-8.02-8.02-21.03 0-29.05l44.78-44.76c8.02-8.02 21.03-8.02 29.05 0s8.02 21.03 0 29.05l-44.78 44.76c-8.02 8.02-21.03 8.02-29.05 0Z"></path><path class="cls-2" d="M169.54 328.04c-8.02-8.02-8.02-21.03 0-29.05l44.78-44.76c8.02-8.02 21.03-8.02 29.05 0s8.02 21.03 0 29.05l-44.78 44.76c-8.02 8.02-21.03 8.02-29.05 0Z"></path><path class="cls-3" d="M96.47 251.21c-6.6 0-12.8-2.57-17.47-7.24-4.67-4.67-7.23-10.87-7.23-17.47s2.57-12.8 7.24-17.47l45.51-45.49c9.64-9.63 25.31-9.63 34.94 0 4.67 4.67 7.23 10.87 7.23 17.47s-2.57 12.8-7.24 17.47l-45.51 45.48c-4.67 4.66-10.87 7.23-17.47 7.23Zm45.51-86.56c-4.19 0-8.38 1.59-11.58 4.79l-45.51 45.49a16.27 16.27 0 0 0-4.8 11.58c0 4.37 1.7 8.49 4.79 11.58s7.2 4.8 11.58 4.8c4.37 0 8.48-1.7 11.58-4.79l45.51-45.48c3.09-3.09 4.8-7.2 4.8-11.58 0-4.37-1.7-8.49-4.79-11.58a16.34 16.34 0 0 0-11.58-4.79Z"></path><path class="cls-3" d="M125.51 280.25c-6.33 0-12.66-2.41-17.47-7.23-9.63-9.63-9.63-25.31 0-34.94l45.51-45.48c9.64-9.63 25.31-9.63 34.94 0 9.63 9.63 9.63 25.31 0 34.94l-45.51 45.48c-4.82 4.81-11.14 7.22-17.47 7.22Zm-11.58-13.12c6.38 6.39 16.77 6.39 23.16 0l45.51-45.48c6.39-6.38 6.39-16.77 0-23.16a16.27 16.27 0 0 0-11.58-4.8c-4.37 0-8.48 1.7-11.58 4.79l-45.51 45.48c-6.38 6.38-6.39 16.77 0 23.16Z"></path><path class="cls-3" d="M154.56 309.31c-6.33 0-12.66-2.41-17.47-7.23-4.67-4.67-7.23-10.87-7.23-17.47s2.57-12.8 7.24-17.47l45.51-45.48c9.63-9.63 25.31-9.63 34.94 0 9.63 9.64 9.63 25.31 0 34.94l-45.51 45.48c-4.82 4.81-11.14 7.22-17.47 7.22Zm45.5-86.55c-4.19 0-8.38 1.59-11.58 4.79l-45.51 45.48a16.27 16.27 0 0 0-4.8 11.58c0 4.37 1.7 8.49 4.79 11.58 6.38 6.39 16.77 6.39 23.16 0l45.51-45.48c6.39-6.38 6.39-16.77 0-23.16a16.34 16.34 0 0 0-11.58-4.79Z"></path><path class="cls-3" d="M183.6 338.38c-6.6 0-12.8-2.57-17.47-7.24-4.67-4.67-7.23-10.87-7.23-17.47s2.57-12.8 7.24-17.47l45.51-45.48c4.67-4.67 10.87-7.23 17.47-7.23s12.8 2.57 17.47 7.24c4.67 4.67 7.23 10.87 7.23 17.47s-2.57 12.8-7.24 17.47l-45.5 45.49c-4.67 4.66-10.87 7.23-17.47 7.23Zm45.5-86.57c-4.37 0-8.48 1.7-11.58 4.79l-45.51 45.48a16.27 16.27 0 0 0-4.8 11.58c0 4.37 1.7 8.49 4.79 11.58s7.2 4.8 11.58 4.8c4.37 0 8.48-1.7 11.58-4.79l45.5-45.49c6.39-6.38 6.39-16.77 0-23.16a16.27 16.27 0 0 0-11.58-4.8Z"></path></g></svg>